<?xml version="1.0" encoding="utf-8"?>
<!-- Generator: Adobe Illustrator 26.1.0, SVG Export Plug-In . SVG Version: 6.00 Build 0)  -->
<svg version="1.1" id="Layer_1" xmlns="http://www.w3.org/2000/svg" xmlns:xlink="http://www.w3.org/1999/xlink" x="0px" y="0px"
	 viewBox="0 0 512 512" style="enable-background:new 0 0 512 512;" xml:space="preserve">
<style type="text/css">
	.st0{fill:#FFFFFF;stroke:#FFFFFF;stroke-width:8;stroke-miterlimit:10;}
</style>
<path class="st0" d="M250.5,506h5.5h5.5h9.8v-0.5C402.1,497.5,506,388.7,506,256S402.1,14.5,271.3,6.5c-3.2-0.2-6.5-0.3-9.7-0.4
	c-1.9,0-3.6-0.1-5.5-0.1c-1.9,0-3.6,0.1-5.5,0.2c-3.2,0.1-6.5,0.2-9.7,0.4C109.9,14.5,6,123.3,6,256s103.9,241.5,234.7,249.5v0.5
	H250.5L250.5,506z M301.2,470.8c36.6-35.8,63.2-73.3,79.5-112h69.1C419.8,415.3,365.6,457.2,301.2,470.8z M475.4,256
	c0,25.3-4.3,49.5-12.2,72h-71.8c6.2-21.9,9.3-44.3,9.1-67c-0.2-27.4-5-53.1-12.7-77.2h75.4C471.1,206.5,475.4,230.7,475.4,256z
	 M449.8,153.3h-73.7c-21.5-48.4-53-87.3-76.9-112.4C364.6,54,419.5,96.2,449.8,153.3z M271.3,56.3c20.5,20.8,49.5,54.6,70.8,97
	h-70.8V56.3z M271.3,184h84c8.8,24,14.5,50.1,14.7,77.6c0.2,22.5-3.4,44.7-10.5,66.6h-88.2L271.3,184L271.3,184z M271.3,358.7H347
	c-16.4,33.8-41.7,66.6-75.8,98.4V358.7z M240.7,328h-88.2c-7.1-21.9-10.6-44.1-10.5-66.6c0.2-27.5,5.9-53.5,14.7-77.6h84L240.7,328
	L240.7,328z M240.7,153.3H170c21.3-42.3,50.3-76.2,70.8-97V153.3z M212.8,40.8c-23.9,25.1-55.4,64-76.9,112.4H62.2
	C92.5,96.2,147.4,54,212.8,40.8z M36.6,256c0-25.3,4.3-49.5,12.2-72.1h75.4c-7.7,24-12.5,49.9-12.7,77.2c-0.2,22.7,3,45.1,9.1,67
	H48.8C40.9,305.5,36.6,281.3,36.6,256z M62.2,358.7h69.1c16.4,38.8,43,76.2,79.5,112C146.4,457.2,92.2,415.3,62.2,358.7z M165,358.7
	h75.8v98.4C206.7,425.3,181.4,392.4,165,358.7z"/>
</svg>
